{"title":"The.Universe.1-7.Seasons.2007-2012.BDRip.480p.ENG.RUS","uid":10052824,"size":63266515490,"categoryP":"video","categoryS":"tv_shows","magnet":"?xt=urn:btih:6bf76d53988bb5e242830f686144eb256d0faab6&amp;dn=The.Universe.1-7.Seasons.2007-2012.BDRip.480p.ENG.RUS&amp;tr=udp%3A%2F%2Ftracker.openbittorrent.com%3A80&amp;tr=udp%3A%2F%2Fopen.demonii.com%3A1337&amp;tr=udp%3A%2F%2Ftracker.coppersurfer.tk%3A6969&amp;tr=udp%3A%2F%2Fexodus.desync.com%3A6969","seeders":1,"leechers":5,"uploader":"niif111","files":78,"time":1398629020,"description":"The.Universe.1-7.Seasons.2007-2012.BDRip.480p.ENG.RUSThe.Universe.Season.6-7The.Universe.S06E07.God.and.the.Universe.BDRip.ENG.RUS.avi\nFormat                                   : AVI\nFormat/Info                              : Audio Video Interleave\nFile size                                : 756 MiB\nDuration                                 : 44mn 2s\nOverall bit rate                         : 2 400 Kbps\nWriting application                      : XviD4PSP 7.0 / 55.26.100\nComment                                  : MATROSKA,WEBM &gt; MKV 1280x Progressive / H264 &gt; X264 VBR-2P 5600kbps HQ / AC3 &gt; COPY  / DTS &gt; COPY\n\nVideo\nID                                       : 0\nFormat                                   : MPEG-4 Visual\nFormat profile                           : Advanced Simple@L5\nFormat settings, BVOP                    : 1\nFormat settings, QPel                    : No\nFormat settings, GMC                     : No warppoints\nFormat settings, Matrix                  : Default (H.263)\nCodec ID                                 : XVID\nCodec ID/Hint                            : XviD\nDuration                                 : 44mn 2s\nBit rate                                 : 2 000 Kbps\nWidth                                    : 720 pixels\nHeight                                   : 400 pixels\nDisplay aspect ratio                     : 16:9\nFrame rate                               : 23.976 fps\nColor space                              : YUV\nChroma subsampling                       : 4:2:0\nBit depth                                : 8 bits\nScan type                                : Progressive\nCompression mode                         : Lossy\nBits/(Pixel*Frame)                       : 0.290\nStream size                              : 630 MiB (83%)\nWriting library                          : XviD 64\n\nAudio #1\nID                                       : 1\nFormat                                   : AC-3\nFormat/Info                              : Audio Coding 3\nMode extension                           : CM (complete main)\nFormat settings, Endianness              : Big\nCodec ID                                 : 2000\nDuration                                 : 44mn 2s\nBit rate mode                            : Constant\nBit rate                                 : 192 Kbps\nChannel(s)                               : 2 channels\nChannel positions                        : Front: L R\nSampling rate                            : 44.1 KHz\nBit depth                                : 16 bits\nCompression mode                         : Lossy\nStream size                              : 60.5 MiB (8%)\nAlignment                                : Aligned on interleaves\nInterleave, duration                     : 35 ms (0.84 video frame)\n\nAudio #2\nID                                       : 2\nFormat                                   : AC-3\nFormat/Info                              : Audio Coding 3\nMode extension                           : CM (complete main)\nFormat settings, Endianness              : Big\nCodec ID                                 : 2000\nDuration                                 : 44mn 2s\nBit rate mode                            : Constant\nBit rate                                 : 192 Kbps\nChannel(s)                               : 2 channels\nChannel positions                        : Front: L R\nSampling rate                            : 48.0 KHz\nBit depth                                : 16 bits\nCompression mode                         : Lossy\nStream size                              : 60.5 MiB (8%)\nAlignment                                : Aligned on interleaves\nInterleave, duration                     : 32 ms (0.77 video frame)\n","torrent":{"xt":"urn:btih:6bf76d53988bb5e242830f686144eb256d0faab6","amp;dn":"The.Universe.1-7.Seasons.2007-2012.BDRip.480p.ENG.RUS","amp;tr":["udp%3A%2F%2Ftracker.openbittorrent.com%3A80","udp%3A%2F%2Fopen.demonii.com%3A1337","udp%3A%2F%2Ftracker.coppersurfer.tk%3A6969","udp%3A%2F%2Fexodus.desync.com%3A6969"],"infoHash":"6bf76d53988bb5e242830f686144eb256d0faab6","infoHashBuffer":{"type":"Buffer","data":[107,247,109,83,152,139,181,226,66,131,15,104,97,68,235,37,109,15,170,182]},"announce":[],"urlList":[]}}